<?xml version="1.0" standalone="no"?>
<!DOCTYPE svg PUBLIC "-//W3C//DTD SVG 20010904//EN"
 "http://www.w3.org/TR/2001/REC-SVG-20010904/DTD/svg10.dtd">
<svg version="1.0" xmlns="http://www.w3.org/2000/svg"
 width="1254.000000pt" height="1254.000000pt" viewBox="0 0 1254.000000 1254.000000"
 preserveAspectRatio="xMidYMid meet">

<g transform="translate(0.000000,1254.000000) scale(0.100000,-0.100000)"
fill="#000000" stroke="none">
<path d="M0 6270 l0 -6270 6270 0 6270 0 0 6270 0 6270 -6270 0 -6270 0 0
-6270z m7390 4635 c0 -2 -165 -252 -366 -555 l-366 -550 -1163 0 c-734 0
-1201 -4 -1266 -10 -418 -43 -836 -263 -1107 -585 -197 -234 -344 -532 -401
-810 -95 -469 -7 -944 244 -1320 270 -405 672 -661 1138 -724 52 -7 591 -11
1622 -11 849 0 1546 -4 1548 -8 2 -4 -156 -250 -353 -547 l-356 -540 -1270 0
-1269 0 -129 23 c-581 102 -1069 349 -1466 741 -715 708 -1000 1738 -750 2721
227 896 870 1645 1703 1987 214 87 498 160 717 182 86 8 3290 15 3290 6z
m1665 -1280 c644 -92 1228 -432 1661 -968 308 -383 506 -866 581 -1422 25
-184 25 -602 0 -775 -80 -553 -226 -935 -511 -1334 -396 -554 -969 -936 -1616
-1076 -256 -56 -169 -54 -1853 -57 -858 -2 -1557 0 -1555 4 5 15 141 220 440
671 l288 432 1117 0 c928 0 1134 3 1213 15 473 72 900 356 1157 770 144 232
238 525 263 825 33 390 -88 837 -313 1157 -80 113 -257 290 -372 372 -167 117
-393 214 -615 264 -93 20 -122 21 -1298 26 l-1203 6 237 360 c130 198 294 448
365 555 l129 195 887 -2 c740 -2 906 -5 998 -18z m-6195 -6395 l0 -140 -607 0
c-672 0 -692 -2 -806 -62 -177 -94 -277 -284 -277 -528 0 -253 103 -436 298
-533 l85 -42 654 -3 653 -3 0 -139 0 -140 -637 0 c-686 0 -705 2 -833 53 -102
42 -171 88 -255 172 -93 94 -150 188 -195 321 -89 268 -49 617 93 832 58 86
172 195 257 245 79 45 199 85 294 96 39 5 342 9 674 9 l602 1 0 -139z m2605
117 c90 -27 213 -90 280 -144 128 -104 232 -273 276 -448 30 -120 33 -359 5
-480 -68 -298 -253 -508 -531 -602 l-80 -27 -474 -4 c-556 -4 -576 -2 -738 79
-211 105 -355 290 -415 536 -17 72 -21 117 -20 248 0 138 3 173 26 258 69 266
230 458 463 552 132 53 150 54 668 52 423 -3 487 -5 540 -20z m2936 13 c239
-27 407 -159 474 -371 31 -98 35 -263 9 -362 -45 -176 -172 -314 -336 -367
-21 -6 -38 -14 -38 -16 0 -3 106 -137 235 -299 129 -162 235 -297 235 -300 0
-3 -78 -5 -174 -5 l-174 0 -130 163 c-71 89 -178 221 -236 292 l-106 130 -441
5 -442 5 104 132 104 132 465 3 c448 3 467 4 511 24 112 52 163 137 164 269 0
44 -6 98 -14 119 -19 55 -82 119 -144 147 l-52 24 -570 0 -570 0 -3 -723 -2
-723 -138 3 -137 3 -3 850 c-1 468 0 855 2 861 6 15 1280 18 1407 4z m2616
-73 c352 -584 617 -1022 787 -1300 113 -186 206 -340 206 -343 0 -2 -75 -3
-167 -2 l-166 3 -40 65 c-74 120 -378 622 -564 930 -101 168 -188 309 -192
313 -11 11 -86 -110 -608 -978 l-199 -330 -162 -3 c-89 -1 -162 1 -162 4 0 7
72 128 235 394 41 69 236 393 433 720 196 327 361 598 366 602 6 4 49 7 97 7
l87 0 49 -82z"/>
<path d="M4445 3078 c-186 -35 -348 -204 -391 -407 -18 -86 -18 -248 1 -336
22 -102 73 -200 143 -269 72 -72 118 -100 201 -126 59 -19 92 -20 500 -20 474
0 503 3 603 57 66 36 169 146 207 221 44 87 61 169 61 297 0 201 -46 331 -154
439 -33 33 -88 76 -122 93 -112 59 -145 63 -594 62 -223 -1 -427 -6 -455 -11z"/>
</g>
</svg>
